# 3ds Max Wavefront OBJ Exporter v0.97b - (c)2007 guruware
# File Created: 14.02.2018 21:46:59

mtllib 101343.mtl

#
# object Cylinder001
#

v  0.4924 0.0000 -0.0266
v  0.3459 0.0000 -0.3802
v  0.3459 0.0027 -0.3802
v  0.4924 0.0027 -0.0266
v  -0.0076 0.0000 -0.5266
v  -0.0076 0.0027 -0.5266
v  -0.3612 0.0000 -0.3802
v  -0.3612 0.0027 -0.3802
v  -0.5076 0.0000 -0.0266
v  -0.5076 0.0027 -0.0266
v  -0.3612 0.0000 0.3269
v  -0.3612 0.0027 0.3269
v  -0.0076 0.0000 0.4734
v  -0.0076 0.0027 0.4734
v  0.3459 0.0000 0.3269
v  0.3459 0.0027 0.3269
v  0.4924 1.0227 -0.0266
v  0.3459 1.0227 -0.3802
v  0.3459 2.2596 -0.3802
v  0.4924 2.2596 -0.0266
v  -0.0076 1.0227 -0.5266
v  -0.0076 2.2596 -0.5266
v  -0.3612 1.0227 -0.3802
v  -0.3612 2.2596 -0.3802
v  -0.5076 1.0227 -0.0266
v  -0.5076 2.2596 -0.0266
v  -0.3612 1.0227 0.3269
v  -0.3612 2.2596 0.3269
v  -0.0076 1.0227 0.4734
v  -0.0076 2.2596 0.4734
v  0.3459 1.0227 0.3269
v  0.3459 2.2596 0.3269
v  0.3459 3.3516 -0.3802
v  0.4924 3.3516 -0.0266
v  -0.0076 3.3516 -0.5266
v  -0.3612 3.3516 -0.3802
v  -0.5076 3.3516 -0.0266
v  -0.3612 3.3516 0.3269
v  -0.0076 3.3516 0.4734
v  0.3459 3.3516 0.3269
v  0.4924 3.3555 -0.0266
v  0.3459 3.3555 -0.3802
v  0.1892 3.6496 -0.2235
v  0.2708 3.6496 -0.0266
v  -0.0076 3.3555 -0.5266
v  -0.0076 3.6496 -0.3051
v  -0.3612 3.3555 -0.3802
v  -0.2045 3.6496 -0.2235
v  -0.5076 3.3555 -0.0266
v  -0.2861 3.6496 -0.0266
v  -0.3612 3.3555 0.3269
v  -0.2045 3.6496 0.1702
v  -0.0076 3.3555 0.4734
v  -0.0076 3.6496 0.2518
v  0.3459 3.3555 0.3269
v  0.1892 3.6496 0.1702
v  0.2776 -0.2683 -0.0266
v  0.1941 -0.2683 -0.2283
v  -0.0076 -0.2683 -0.3119
v  -0.2094 -0.2683 -0.2283
v  -0.2929 -0.2683 -0.0266
v  -0.2094 -0.2683 0.1751
v  -0.0076 -0.2683 0.2586
v  0.1941 -0.2683 0.1751
v  -0.0076 3.6511 0.2507
v  0.1884 3.6511 0.1694
v  -0.0076 3.6511 -0.3040
v  -0.2037 3.6511 -0.2227
v  0.2697 3.6511 -0.0266
v  0.1884 3.6511 -0.2227
v  -0.2037 3.6511 0.1694
v  -0.2850 3.6511 -0.0266
v  0.1916 -0.2725 0.1727
v  -0.0076 -0.2725 0.2552
v  -0.2069 -0.2725 -0.2259
v  -0.0076 -0.2725 -0.3085
v  0.2742 -0.2725 -0.0266
v  0.1916 -0.2725 -0.2259
v  -0.2069 -0.2725 0.1727
v  -0.2895 -0.2725 -0.0266
# 80 vertices

vn 0.9513 -0.3083 -0.0000
vn 0.6727 -0.3083 -0.6727
vn 0.7071 -0.0000 -0.7071
vn 1.0000 0.0000 -0.0000
vn -0.0000 -0.3083 -0.9513
vn -0.0000 -0.0000 -1.0000
vn -0.6727 -0.3083 -0.6727
vn -0.7071 -0.0000 -0.7071
vn -0.9513 -0.3083 0.0000
vn -1.0000 0.0000 0.0000
vn -0.6727 -0.3083 0.6727
vn -0.7071 -0.0000 0.7071
vn -0.0000 -0.3083 0.9513
vn -0.0000 0.0000 1.0000
vn 0.6727 -0.3083 0.6727
vn 0.7071 -0.0000 0.7071
vn 1.0000 0.0000 0.0000
vn 0.7071 0.0000 -0.7071
vn -0.7071 0.0000 -0.7071
vn -1.0000 -0.0000 0.0000
vn -0.7071 0.0000 0.7071
vn -0.0000 -0.0000 1.0000
vn 0.7071 0.0000 0.7071
vn -1.0000 -0.0000 -0.0000
vn 0.9552 0.2961 0.0000
vn 0.6754 0.2961 -0.6754
vn 0.5648 0.6016 -0.5648
vn 0.7988 0.6016 -0.0000
vn -0.0000 0.2961 -0.9552
vn -0.0000 0.6016 -0.7988
vn -0.6754 0.2961 -0.6754
vn -0.5648 0.6016 -0.5648
vn -0.9552 0.2961 0.0000
vn -0.7988 0.6016 0.0000
vn -0.6754 0.2961 0.6754
vn -0.5648 0.6016 0.5648
vn -0.0000 0.2961 0.9552
vn -0.0000 0.6016 0.7988
vn 0.6754 0.2961 0.6754
vn 0.5648 0.6016 0.5648
vn 0.7807 -0.6249 0.0000
vn 0.5520 -0.6249 -0.5520
vn -0.0000 -0.6249 -0.7807
vn -0.5520 -0.6249 -0.5520
vn -0.7807 -0.6249 0.0000
vn -0.5520 -0.6249 0.5520
vn -0.0000 -0.6249 0.7807
vn 0.5520 -0.6249 0.5520
vn -0.0000 0.8501 0.5266
vn 0.3723 0.8501 0.3723
vn -0.0000 0.8501 -0.5266
vn -0.3723 0.8501 -0.3723
vn 0.5266 0.8501 -0.0000
vn 0.3723 0.8501 -0.3723
vn -0.3723 0.8501 0.3723
vn -0.5266 0.8501 0.0000
vn 0.3624 -0.8587 0.3624
vn -0.0000 -0.8587 0.5125
vn -0.3624 -0.8587 -0.3624
vn -0.0000 -0.8587 -0.5125
vn 0.5125 -0.8587 0.0000
vn 0.3624 -0.8587 -0.3624
vn -0.3624 -0.8587 0.3624
vn -0.5125 -0.8587 0.0000
# 64 vertex normals

vt 0.7500 0.0000 1.0000
vt 0.8750 0.0000 1.0000
vt 0.8750 0.0007 1.0000
vt 0.7500 0.0007 1.0000
vt -0.1250 0.0000 1.0000
vt 0.0000 0.0000 1.0000
vt 0.0000 0.0007 1.0000
vt -0.1250 0.0007 1.0000
vt 0.1250 0.0000 1.0000
vt 0.1250 0.0007 1.0000
vt 0.2500 0.0000 1.0000
vt 0.2500 0.0007 1.0000
vt 0.3750 0.0000 1.0000
vt 0.3750 0.0007 1.0000
vt 0.5000 0.0000 1.0000
vt 0.5000 0.0007 1.0000
vt 0.6250 0.0000 1.0000
vt 0.6250 0.0007 1.0000
vt 0.7500 0.3333 1.0000
vt 0.8750 0.3333 1.0000
vt 0.8750 0.6667 1.0000
vt 0.7500 0.6667 1.0000
vt -0.1250 0.3333 1.0000
vt 0.0000 0.3333 1.0000
vt 0.0000 0.6667 1.0000
vt -0.1250 0.6667 1.0000
vt 0.1250 0.3333 1.0000
vt 0.1250 0.6667 1.0000
vt 0.2500 0.3333 1.0000
vt 0.2500 0.6667 1.0000
vt 0.3750 0.3333 1.0000
vt 0.3750 0.6667 1.0000
vt 0.5000 0.3333 1.0000
vt 0.5000 0.6667 1.0000
vt 0.6250 0.3333 1.0000
vt 0.6250 0.6667 1.0000
vt 0.8750 0.9990 1.0000
vt 0.7500 0.9990 1.0000
vt 0.0000 0.9990 1.0000
vt -0.1250 0.9990 1.0000
vt 0.1250 0.9990 1.0000
vt 0.2500 0.9990 1.0000
vt 0.3750 0.9990 1.0000
vt 0.5000 0.9990 1.0000
vt 0.6250 0.9990 1.0000
vt 0.7500 1.0000 1.0000
vt 0.8750 1.0000 1.0000
vt -0.1250 1.0000 1.0000
vt 0.0000 1.0000 1.0000
vt 0.1250 1.0000 1.0000
vt 0.2500 1.0000 1.0000
vt 0.3750 1.0000 1.0000
vt 0.5000 1.0000 1.0000
vt 0.6250 1.0000 1.0000
# 54 texture coords

o Cylinder001
g Cylinder001
usemtl wire_154215229
s 8
f 1/1/1 2/2/2 3/3/3 4/4/4 
f 2/5/2 5/6/5 6/7/6 3/8/3 
f 5/6/5 7/9/7 8/10/8 6/7/6 
f 7/9/7 9/11/9 10/12/10 8/10/8 
f 9/11/9 11/13/11 12/14/12 10/12/10 
f 11/13/11 13/15/13 14/16/14 12/14/12 
f 13/15/13 15/17/15 16/18/16 14/16/14 
f 15/17/15 1/1/1 4/4/4 16/18/16 
f 17/19/17 18/20/18 19/21/18 20/22/4 
f 18/23/18 21/24/6 22/25/6 19/26/18 
f 21/24/6 23/27/19 24/28/19 22/25/6 
f 23/27/19 25/29/20 26/30/10 24/28/19 
f 25/29/20 27/31/21 28/32/21 26/30/10 
f 27/31/21 29/33/14 30/34/22 28/32/21 
f 29/33/14 31/35/23 32/36/23 30/34/22 
f 31/35/23 17/19/17 20/22/4 32/36/23 
f 20/22/4 19/21/18 33/37/18 34/38/4 
f 19/26/18 22/25/6 35/39/6 33/40/18 
f 22/25/6 24/28/19 36/41/19 35/39/6 
f 24/28/19 26/30/10 37/42/24 36/41/19 
f 26/30/10 28/32/21 38/43/21 37/42/24 
f 28/32/21 30/34/22 39/44/22 38/43/21 
f 30/34/22 32/36/23 40/45/23 39/44/22 
f 32/36/23 20/22/4 34/38/4 40/45/23 
s off
f 41/46/25 42/47/26 43/47/27 44/46/28 
f 42/48/26 45/49/29 46/49/30 43/48/27 
f 45/49/29 47/50/31 48/50/32 46/49/30 
f 47/50/31 49/51/33 50/51/34 48/50/32 
f 49/51/33 51/52/35 52/52/36 50/51/34 
f 51/52/35 53/53/37 54/53/38 52/52/36 
f 53/53/37 55/54/39 56/54/40 54/53/38 
f 55/54/39 41/46/25 44/46/28 56/54/40 
f 2/2/2 1/1/1 57/1/41 58/2/42 
f 5/6/5 2/5/2 58/5/42 59/6/43 
f 7/9/7 5/6/5 59/6/43 60/9/44 
f 9/11/9 7/9/7 60/9/44 61/11/45 
f 11/13/11 9/11/9 61/11/45 62/13/46 
f 13/15/13 11/13/11 62/13/46 63/15/47 
f 15/17/15 13/15/13 63/15/47 64/17/48 
f 1/1/1 15/17/15 64/17/48 57/1/41 
s 1
f 65/47/49 66/46/50 67/23/51 68/26/52 
s 2
f 66/46/50 69/5/53 70/23/54 67/23/51 
f 71/48/55 65/47/49 68/26/52 72/26/56 
s 1
f 73/1/57 74/54/58 75/51/59 76/50/60 
s 2
f 77/49/61 73/1/57 76/50/60 78/48/62 
f 74/54/58 79/53/63 80/52/64 75/51/59 
s 8
f 33/37/18 42/47/26 41/46/25 34/38/4 
f 35/39/6 45/49/29 42/48/26 33/40/18 
f 36/41/19 47/50/31 45/49/29 35/39/6 
f 37/42/24 49/51/33 47/50/31 36/41/19 
f 38/43/21 51/52/35 49/51/33 37/42/24 
f 39/44/22 53/53/37 51/52/35 38/43/21 
f 40/45/23 55/54/39 53/53/37 39/44/22 
f 34/38/4 41/46/25 55/54/39 40/45/23 
s off
f 43/47/27 70/47/54 69/46/53 44/46/28 
f 46/49/30 67/49/51 70/48/54 43/48/27 
f 48/50/32 68/50/52 67/49/51 46/49/30 
f 50/51/34 72/51/56 68/50/52 48/50/32 
f 52/52/36 71/52/55 72/51/56 50/51/34 
f 54/53/38 65/53/49 71/52/55 52/52/36 
f 56/54/40 66/54/50 65/53/49 54/53/38 
f 44/46/28 69/46/53 66/54/50 56/54/40 
s 8
f 3/3/3 18/20/18 17/19/17 4/4/4 
f 6/7/6 21/24/6 18/23/18 3/8/3 
f 8/10/8 23/27/19 21/24/6 6/7/6 
f 10/12/10 25/29/20 23/27/19 8/10/8 
f 12/14/12 27/31/21 25/29/20 10/12/10 
f 14/16/14 29/33/14 27/31/21 12/14/12 
f 16/18/16 31/35/23 29/33/14 14/16/14 
f 4/4/4 17/19/17 31/35/23 16/18/16 
s off
f 57/1/41 77/1/61 78/2/62 58/2/42 
f 58/5/42 78/5/62 76/6/60 59/6/43 
f 59/6/43 76/6/60 75/9/59 60/9/44 
f 60/9/44 75/9/59 80/11/64 61/11/45 
f 61/11/45 80/11/64 79/13/63 62/13/46 
f 62/13/46 79/13/63 74/15/58 63/15/47 
f 63/15/47 74/15/58 73/17/57 64/17/48 
f 64/17/48 73/17/57 77/1/61 57/1/41 
# 78 polygons

