# 3ds Max Wavefront OBJ Exporter v0.97b - (c)2007 guruware
# File Created: 19.02.2018 13:35:30

mtllib asse3.mtl

#
# object Box019
#

v  -90.0710 25.9703 32.5211
v  -90.0710 25.9703 25.2548
v  -88.8782 25.9703 25.2548
v  -88.8782 25.9703 32.5211
v  -88.8782 41.8410 32.5211
v  -90.0710 41.8410 32.5211
v  -84.7807 25.9703 32.5211
v  -84.7807 25.9703 25.2548
v  -84.7807 41.8410 25.2548
v  -84.7807 41.8410 32.5211
v  -84.7807 25.9703 -25.6541
v  -85.9347 25.9703 -25.6541
v  -85.9347 41.8410 -25.6541
v  -84.7807 41.8410 -25.6541
v  -90.0710 25.9703 -25.6541
v  -90.0710 25.9703 -18.6422
v  -90.0710 41.8410 -18.6422
v  -90.0710 41.8410 -25.6541
v  -85.9347 41.8410 -18.6422
v  -84.7807 41.8410 -18.6422
v  -88.8782 25.9703 -18.6422
v  -88.8782 25.9703 -25.6541
v  -90.0710 25.9703 -17.1949
v  -88.8782 25.9703 -17.1949
v  -84.7807 41.8410 -17.1949
v  -85.9347 41.8410 -17.1949
v  -84.7807 25.9703 -17.1949
v  -84.7807 25.9703 -18.6422
v  -90.0710 25.9703 -15.5787
v  -90.0710 41.8410 -15.5787
v  -90.0710 41.8410 -17.1949
v  -88.8782 41.8410 -15.5787
v  -88.8782 41.8410 -17.1949
v  -84.7807 25.9703 -15.5787
v  -85.9347 25.9703 -15.5787
v  -85.9347 25.9703 -17.1949
v  -90.0710 25.9703 -11.6067
v  -90.0710 25.9703 -12.9182
v  -88.8782 25.9703 -12.9182
v  -88.8782 25.9703 -11.6067
v  -84.7807 41.8410 -11.6067
v  -84.7807 41.8410 -12.9182
v  -85.9347 41.8410 -12.9182
v  -85.9347 41.8410 -11.6067
v  -84.7807 25.9703 -11.6067
v  -84.7807 25.9703 -12.9182
v  -90.0710 25.9703 -10.0563
v  -90.0710 41.8410 -10.0563
v  -90.0710 41.8410 -11.6067
v  -88.8782 41.8410 -10.0563
v  -88.8782 41.8410 -11.6067
v  -84.7807 25.9703 -10.0563
v  -85.9347 25.9703 -10.0563
v  -85.9347 25.9703 -11.6067
v  -90.0710 25.9703 17.8928
v  -90.0710 25.9703 16.6286
v  -88.8782 25.9703 16.6286
v  -88.8782 25.9703 17.8928
v  -84.7807 41.8410 17.8928
v  -84.7807 41.8410 16.6286
v  -85.9347 41.8410 16.6286
v  -85.9347 41.8410 17.8928
v  -84.7807 25.9703 17.8928
v  -84.7807 25.9703 16.6285
v  -90.0710 25.9703 19.2890
v  -90.0710 41.8410 19.2890
v  -90.0710 41.8410 17.8928
v  -88.8782 41.8410 19.2890
v  -88.8782 41.8410 17.8928
v  -84.7807 25.9703 19.2890
v  -85.9347 25.9703 19.2890
v  -85.9347 25.9703 17.8928
v  -90.0710 25.9703 23.8841
v  -90.0710 25.9703 22.6750
v  -88.8782 25.9703 22.6750
v  -88.8782 25.9703 23.8841
v  -84.7807 41.8410 23.8841
v  -84.7807 41.8410 22.6750
v  -85.9347 41.8410 22.6750
v  -85.9347 41.8410 23.8841
v  -84.7807 25.9703 23.8841
v  -84.7807 25.9703 22.6750
v  -90.0710 41.8410 25.2548
v  -90.0710 41.8410 23.8841
v  -88.8782 41.8410 25.2548
v  -88.8782 41.8410 23.8841
v  -85.9347 25.9703 25.2548
v  -85.9347 25.9703 23.8841
v  -88.8782 41.8410 -25.6541
v  -88.8782 41.8410 -18.6422
v  -85.9347 41.8410 32.5211
v  -85.9347 41.8410 25.2548
v  -85.9347 25.9703 32.5211
v  -85.9347 25.9703 -18.6422
v  -85.9347 25.9703 -12.9182
v  -85.9347 25.9703 16.6286
v  -85.9347 25.9703 22.6750
v  -90.0710 41.8410 16.6285
v  -88.8782 41.8410 16.6286
v  -88.8782 25.9703 -10.0563
v  -84.7807 41.8410 -10.0563
v  -85.9347 41.8410 -10.0563
v  -90.0710 41.8410 22.6750
v  -88.8782 41.8410 22.6750
v  -88.8782 25.9703 19.2890
v  -84.7807 41.8410 19.2890
v  -85.9347 41.8410 19.2890
v  -90.0710 41.8410 -12.9182
v  -88.8782 41.8410 -12.9182
v  -88.8782 25.9703 -15.5787
v  -84.7807 41.8410 -15.5787
v  -85.9347 41.8410 -15.5787
v  -87.7976 41.8414 -17.8180
v  -87.0779 41.8414 -17.8180
v  -86.7180 41.8414 -17.1949
v  -87.0779 41.8414 -16.5718
v  -87.7976 41.8414 -16.5718
v  -88.1575 41.8414 -17.1949
v  -87.7976 41.8414 -12.2298
v  -87.0779 41.8414 -12.2298
v  -86.7180 41.8414 -11.6067
v  -87.0779 41.8414 -10.9836
v  -87.7976 41.8414 -10.9836
v  -88.1575 41.8414 -11.6067
v  -87.7976 41.8414 17.2697
v  -87.0779 41.8414 17.2697
v  -86.7180 41.8414 17.8928
v  -87.0779 41.8414 18.5159
v  -87.7976 41.8414 18.5159
v  -88.1575 41.8414 17.8928
v  -87.7976 41.8414 23.2610
v  -87.0779 41.8414 23.2610
v  -86.7180 41.8414 23.8841
v  -87.0779 41.8414 24.5073
v  -87.7976 41.8414 24.5073
v  -88.1575 41.8414 23.8841
v  -87.0779 39.2416 -17.8180
v  -86.7180 39.2416 -17.1949
v  -87.7976 39.2416 -17.8180
v  -88.1575 39.2416 -17.1949
v  -87.7976 39.2416 -16.5718
v  -87.0779 39.2416 -16.5718
v  -87.0779 39.2416 -12.2298
v  -86.7180 39.2416 -11.6067
v  -87.7976 39.2416 -12.2298
v  -88.1575 39.2416 -11.6067
v  -87.7976 39.2416 -10.9836
v  -87.0779 39.2416 -10.9836
v  -87.0779 39.2416 17.2697
v  -86.7180 39.2416 17.8928
v  -87.7976 39.2416 17.2697
v  -88.1575 39.2416 17.8928
v  -87.7976 39.2416 18.5159
v  -87.0779 39.2416 18.5159
v  -87.0779 39.2416 23.2610
v  -86.7180 39.2416 23.8841
v  -87.7976 39.2416 23.2610
v  -88.1575 39.2416 23.8841
v  -87.7976 39.2416 24.5073
v  -87.0779 39.2416 24.5073
# 160 vertices

vn -0.5774 -0.5774 0.5774
vn -0.7071 -0.7071 -0.0000
vn 0.0000 -1.0000 -0.0000
vn 0.0000 -0.7071 0.7071
vn 0.0000 0.7071 0.7071
vn -0.5773 0.5774 0.5774
vn 0.5774 -0.5774 0.5774
vn 0.7071 -0.7071 -0.0000
vn 0.7071 0.7071 -0.0000
vn 0.5774 0.5774 0.5774
vn 0.5774 -0.5774 -0.5774
vn -0.0000 -0.7071 -0.7071
vn 0.0000 0.7071 -0.7071
vn 0.5774 0.5774 -0.5774
vn -0.5773 -0.5774 -0.5774
vn -0.7071 0.7071 -0.0000
vn -0.5774 0.5774 -0.5774
vn 0.0001 1.0000 -0.0001
vn 0.0000 -0.7071 -0.7071
vn 0.0003 1.0000 -0.0000
vn -0.0001 1.0000 0.0001
vn -0.0003 1.0000 -0.0000
vn -0.7071 0.7071 0.0000
vn 0.7071 -0.7071 0.0000
vn -0.0001 1.0000 -0.0001
vn -0.0000 0.7071 0.7071
vn 0.0001 1.0000 0.0001
vn 0.0001 1.0000 0.0000
vn 0.2724 0.8387 0.4715
vn -0.2723 0.8388 0.4715
vn -0.5444 0.8388 -0.0000
vn -0.2723 0.8388 -0.4715
vn 0.2723 0.8388 -0.4715
vn 0.5443 0.8389 -0.0000
vn 0.2723 0.8388 0.4714
vn -0.2723 0.8388 0.4714
vn -0.5443 0.8389 0.0000
vn 0.2723 0.8389 0.4714
vn -0.3962 0.6100 0.6862
vn -0.7924 0.6100 -0.0000
vn 0.3962 0.6100 0.6862
vn 0.7924 0.6100 -0.0000
vn 0.3962 0.6100 -0.6862
vn -0.3962 0.6100 -0.6862
vn -0.7924 0.6100 0.0001
vn 0.3961 0.6100 0.6862
vn 0.7923 0.6101 -0.0000
vn 0.3961 0.6100 -0.6862
vn -0.3961 0.6100 -0.6862
vn 0.7924 0.6100 -0.0001
# 50 vertex normals

vt 1.0000 0.0000 0.0000
vt 1.0000 0.1249 0.0000
vt 0.7745 0.1249 0.0000
vt 0.7745 0.0000 0.0000
vt 0.0000 0.0000 0.0000
vt 0.2255 0.0000 0.0000
vt 0.2255 1.0000 0.0000
vt 0.0000 1.0000 0.0000
vt 0.1249 0.0000 0.0000
vt 0.1249 1.0000 0.0000
vt 0.2181 0.0000 0.0000
vt 0.2181 1.0000 0.0000
vt 0.1205 0.0000 0.0000
vt 0.1205 1.0000 0.0000
vt 0.7819 0.8795 0.0000
vt 1.0000 0.8795 0.0000
vt 1.0000 1.0000 0.0000
vt 0.7819 1.0000 0.0000
vt 0.7745 0.8795 0.0000
vt 0.7745 1.0000 0.0000
vt 1.0000 0.8546 0.0000
vt 0.7745 0.8546 0.0000
vt 0.7819 0.8546 0.0000
vt 0.8546 0.0000 0.0000
vt 0.8795 0.0000 0.0000
vt 0.8795 1.0000 0.0000
vt 0.8546 1.0000 0.0000
vt 0.1454 0.0000 0.0000
vt 0.1732 0.0000 0.0000
vt 0.1732 1.0000 0.0000
vt 0.1454 1.0000 0.0000
vt 0.0000 0.8546 0.0000
vt 0.0000 0.8268 0.0000
vt 0.2255 0.8268 0.0000
vt 0.2255 0.8546 0.0000
vt 0.2181 0.8268 0.0000
vt 0.2181 0.8546 0.0000
vt 1.0000 0.7585 0.0000
vt 1.0000 0.7811 0.0000
vt 0.7745 0.7811 0.0000
vt 0.7745 0.7585 0.0000
vt 0.7819 0.7811 0.0000
vt 0.7819 0.7585 0.0000
vt 0.7585 0.0000 0.0000
vt 0.7811 0.0000 0.0000
vt 0.7811 1.0000 0.0000
vt 0.7585 1.0000 0.0000
vt 0.2415 0.0000 0.0000
vt 0.2681 0.0000 0.0000
vt 0.2681 1.0000 0.0000
vt 0.2415 1.0000 0.0000
vt 0.0000 0.7585 0.0000
vt 0.0000 0.7319 0.0000
vt 0.2255 0.7319 0.0000
vt 0.2255 0.7585 0.0000
vt 0.2181 0.7319 0.0000
vt 0.2181 0.7585 0.0000
vt 1.0000 0.2515 0.0000
vt 1.0000 0.2732 0.0000
vt 0.7745 0.2732 0.0000
vt 0.7745 0.2515 0.0000
vt 0.7819 0.2732 0.0000
vt 0.7819 0.2515 0.0000
vt 0.2515 0.0000 0.0000
vt 0.2732 0.0000 0.0000
vt 0.2732 1.0000 0.0000
vt 0.2515 1.0000 0.0000
vt 0.7485 0.0000 0.0000
vt 0.7725 0.0000 0.0000
vt 0.7725 1.0000 0.0000
vt 0.7485 1.0000 0.0000
vt 0.0000 0.2515 0.0000
vt 0.0000 0.2275 0.0000
vt 0.2255 0.2275 0.0000
vt 0.2255 0.2515 0.0000
vt 0.2181 0.2275 0.0000
vt 0.2181 0.2515 0.0000
vt 1.0000 0.1485 0.0000
vt 1.0000 0.1692 0.0000
vt 0.7745 0.1692 0.0000
vt 0.7745 0.1485 0.0000
vt 0.7819 0.1692 0.0000
vt 0.7819 0.1485 0.0000
vt 0.1485 0.0000 0.0000
vt 0.1692 0.0000 0.0000
vt 0.1692 1.0000 0.0000
vt 0.1485 1.0000 0.0000
vt 0.8515 0.0000 0.0000
vt 0.8751 0.0000 0.0000
vt 0.8751 1.0000 0.0000
vt 0.8515 1.0000 0.0000
vt 0.0000 0.1485 0.0000
vt 0.0000 0.1249 0.0000
vt 0.2255 0.1249 0.0000
vt 0.2255 0.1485 0.0000
vt 0.2181 0.1249 0.0000
vt 0.2181 0.1485 0.0000
vt 0.2255 0.8795 0.0000
vt 0.7819 0.0000 0.0000
vt 0.7819 0.1249 0.0000
vt 0.0000 0.8795 0.0000
vt 0.2181 0.8795 0.0000
vt 0.2181 0.7811 0.0000
vt 0.2181 0.2732 0.0000
vt 0.2181 0.1692 0.0000
vt 0.7268 0.0000 0.0000
vt 0.7268 1.0000 0.0000
vt 0.0000 0.2732 0.0000
vt 0.2255 0.2732 0.0000
vt 1.0000 0.7319 0.0000
vt 0.7745 0.7319 0.0000
vt 0.7819 0.7319 0.0000
vt 0.7319 0.0000 0.0000
vt 0.7319 1.0000 0.0000
vt 0.8308 0.0000 0.0000
vt 0.8308 1.0000 0.0000
vt 0.0000 0.1692 0.0000
vt 0.2255 0.1692 0.0000
vt 1.0000 0.2275 0.0000
vt 0.7745 0.2275 0.0000
vt 0.7819 0.2275 0.0000
vt 0.2275 0.0000 0.0000
vt 0.2275 1.0000 0.0000
vt 0.2189 0.0000 0.0000
vt 0.2189 1.0000 0.0000
vt 0.0000 0.7811 0.0000
vt 0.2255 0.7811 0.0000
vt 1.0000 0.8268 0.0000
vt 0.7745 0.8268 0.0000
vt 0.7819 0.8268 0.0000
vt 0.8268 0.0000 0.0000
vt 0.8268 1.0000 0.0000
vt 0.0289 0.2275 0.0000
vt 0.0000 0.0034 0.0000
vt 0.1454 0.0034 0.0000
vt 1.0000 0.0034 0.0000
vt 0.0055 0.0034 0.0000
vt 0.9454 0.1692 0.0000
vt 0.9979 0.0034 0.0000
vt 0.0546 0.7585 0.0000
vt 0.9711 0.0000 0.0000
vt 0.2732 0.9890 0.0000
vt 0.9711 0.9945 0.0000
vt 0.9711 0.0021 0.0000
vt 0.9711 1.0000 0.0000
vt 0.9711 0.1485 0.0000
vt 0.0289 0.9890 0.0000
vt 0.0289 1.0000 0.0000
vt 0.0289 0.0000 0.0000
vt 0.0289 0.0034 0.0000
vt 0.2181 0.0021 0.0000
vt 0.0289 0.0021 0.0000
vt 0.9454 0.8546 0.0000
vt 0.0289 0.9945 0.0000
vt 0.7745 0.0034 0.0000
vt 0.9711 0.9890 0.0000
vt 0.9711 0.0034 0.0000
vt 0.2415 0.9890 0.0000
# 158 texture coords

o Box019
g Box019
usemtl 02___Default
s 2
f 1/1/1 2/2/2 3/3/3 4/4/4 
s 8
f 1/5/1 4/6/4 5/7/5 6/8/6 
s 16
f 7/5/7 8/9/8 9/10/9 10/8/10 
s 32
f 11/5/11 12/11/12 13/12/13 14/8/14 
s 64
f 15/5/15 16/13/2 17/14/16 18/8/17 
s 4
f 19/15/18 20/16/9 14/17/14 13/18/13 
s 2
f 21/19/3 16/16/2 15/17/15 22/20/19 
f 23/21/2 16/16/2 21/19/3 24/22/3 
s 4
f 25/21/9 20/16/9 19/15/18 26/23/20 
s 16
f 27/24/8 28/25/8 20/26/9 25/27/9 
s 64
f 23/28/2 29/29/2 30/30/16 31/31/16 
s 4
f 31/32/16 30/33/16 32/34/21 33/35/22 
s 2
f 27/32/8 34/33/8 35/36/3 36/37/3 
f 37/38/2 38/39/2 39/40/3 40/41/3 
s 4
f 41/38/9 42/39/9 43/42/18 44/43/20 
s 16
f 45/44/8 46/45/8 42/46/9 41/47/9 
s 64
f 37/48/2 47/49/2 48/50/23 49/51/16 
s 4
f 49/52/16 48/53/23 50/54/21 51/55/22 
s 2
f 45/52/8 52/53/24 53/56/3 54/57/3 
f 55/58/2 56/59/2 57/60/3 58/61/3 
s 4
f 59/58/9 60/59/9 61/62/18 62/63/20 
s 16
f 63/64/8 64/65/24 60/66/9 59/67/9 
s 64
f 55/68/2 65/69/2 66/70/16 67/71/16 
s 4
f 67/72/16 66/73/16 68/74/21 69/75/22 
s 2
f 63/72/8 70/73/8 71/76/3 72/77/3 
f 73/78/2 74/79/2 75/80/3 76/81/3 
s 4
f 77/78/9 78/79/9 79/82/18 80/83/20 
s 16
f 81/84/8 82/85/8 78/86/9 77/87/9 
s 64
f 73/88/2 2/89/2 83/90/16 84/91/16 
s 4
f 84/92/16 83/93/16 85/94/21 86/95/22 
s 2
f 81/92/8 8/93/8 87/96/3 88/97/3 
s 32
f 12/11/12 22/4/19 89/20/13 13/12/13 
s 4
f 13/18/13 89/7/13 90/98/25 19/15/18 
f 91/99/26 10/1/10 9/2/9 92/100/27 
s 8
f 93/99/4 7/1/7 10/17/10 91/18/26 
s 2
f 12/12/12 11/8/11 28/101/8 94/102/3 
f 54/57/3 40/41/3 39/40/3 95/103/3 
f 72/77/3 58/61/3 57/60/3 96/104/3 
f 88/97/3 76/81/3 75/80/3 97/105/3 
f 3/3/3 87/96/3 93/11/4 4/4/4 
s 4
f 5/6/5 91/99/26 92/100/27 85/94/21 
s 8
f 4/6/4 93/99/4 91/18/26 5/7/5 
s 2
f 22/20/19 12/12/12 94/102/3 21/19/3 
s 32
f 22/4/19 15/1/15 18/17/17 89/20/13 
s 4
f 89/7/13 18/8/17 17/101/16 90/98/25 
s 64
f 56/106/2 55/68/2 67/71/16 98/107/23 
s 4
f 98/108/23 67/72/16 69/75/22 99/109/25 
s 2
f 64/108/24 63/72/8 72/77/3 96/104/3 
f 56/59/2 47/110/2 100/111/3 57/60/3 
s 4
f 60/59/9 101/110/9 102/112/27 61/62/18 
s 16
f 64/65/24 52/113/24 101/114/9 60/66/9 
s 2
f 57/60/3 100/111/3 53/56/3 96/104/3 
s 4
f 61/62/18 102/112/27 50/54/21 99/109/25 
s 64
f 65/69/2 74/115/2 103/116/16 66/70/16 
s 4
f 66/73/16 103/117/16 104/118/25 68/74/21 
s 2
f 70/73/8 82/117/8 97/105/3 71/76/3 
f 65/119/2 55/58/2 58/61/3 105/120/3 
s 4
f 106/119/9 59/58/9 62/63/20 107/121/27 
s 16
f 70/122/8 63/64/8 59/67/9 106/123/9 
s 2
f 105/120/3 58/61/3 72/77/3 71/76/3 
f 74/79/2 65/119/2 105/120/3 75/80/3 
s 4
f 78/79/9 106/119/9 107/121/27 79/82/18 
s 16
f 82/85/8 70/122/8 106/123/9 78/86/9 
s 2
f 75/80/3 105/120/3 71/76/3 97/105/3 
s 4
f 79/82/18 107/121/27 68/74/21 104/118/25 
s 64
f 74/115/2 73/88/2 84/91/16 103/116/16 
s 4
f 103/117/16 84/92/16 86/95/22 104/118/25 
s 2
f 82/117/8 81/92/8 88/97/3 97/105/3 
f 2/2/2 73/78/2 76/81/3 3/3/3 
s 4
f 9/2/9 77/78/9 80/83/20 92/100/27 
s 16
f 8/9/8 81/84/8 77/87/9 9/10/9 
s 64
f 2/89/2 1/1/1 6/17/6 83/90/16 
s 4
f 83/93/16 6/5/6 5/6/5 85/94/21 
s 2
f 8/93/8 7/5/7 93/11/4 87/96/3 
f 3/3/3 76/81/3 88/97/3 87/96/3 
s 64
f 38/124/2 37/48/2 49/51/16 108/125/16 
s 4
f 108/126/16 49/52/16 51/55/22 109/127/25 
s 2
f 46/126/8 45/52/8 54/57/3 95/103/3 
f 38/39/2 29/128/2 110/129/3 39/40/3 
s 4
f 42/39/9 111/128/9 112/130/28 43/42/18 
s 16
f 46/45/8 34/131/8 111/132/9 42/46/9 
s 2
f 39/40/3 110/129/3 35/36/3 95/103/3 
s 4
f 43/42/18 112/130/28 32/34/21 109/127/25 
s 64
f 47/49/2 56/106/2 98/107/23 48/50/23 
s 4
f 48/53/23 98/108/23 99/109/25 50/54/21 
s 2
f 52/53/24 64/108/24 96/104/3 53/56/3 
f 47/110/2 37/38/2 40/41/3 100/111/3 
s 4
f 101/110/9 41/38/9 44/43/20 102/112/27 
s 16
f 52/113/24 45/44/8 41/47/9 101/114/9 
s 2
f 100/111/3 40/41/3 54/57/3 53/56/3 
s 64
f 16/13/2 23/28/2 31/31/16 17/14/16 
s 16
f 28/25/8 11/1/11 14/17/14 20/26/9 
s 2
f 28/101/8 27/32/8 36/37/3 94/102/3 
f 94/102/3 36/37/3 24/22/3 21/19/3 
s 4
f 17/101/16 31/32/16 33/35/22 90/98/25 
s 64
f 29/29/2 38/124/2 108/125/16 30/30/16 
s 4
f 30/33/16 108/126/16 109/127/25 32/34/21 
s 2
f 34/33/8 46/126/8 95/103/3 35/36/3 
f 29/128/2 23/21/2 24/22/3 110/129/3 
s 4
f 111/128/9 25/21/9 26/23/20 112/130/28 
s 16
f 34/131/8 27/24/8 25/27/9 111/132/9 
s 2
f 110/129/3 24/22/3 36/37/3 35/36/3 
f 19/133/18 90/79/25 113/134/29 114/134/30 
s 8
f 26/135/20 19/133/18 114/134/30 115/136/31 
s 2
f 112/115/28 26/135/20 115/136/31 116/137/32 
s 8
f 32/138/21 112/115/28 116/137/32 117/139/33 
f 90/79/25 33/140/22 118/136/34 113/134/29 
s 2
f 33/140/22 32/138/21 117/139/33 118/136/34 
f 43/62/18 109/109/25 119/141/35 120/134/36 
s 8
f 44/28/20 43/62/18 120/134/36 121/136/37 
s 2
f 102/142/27 44/28/20 121/136/37 122/143/32 
s 8
f 50/59/21 102/142/27 122/143/32 123/144/33 
f 109/109/25 51/51/22 124/145/34 119/141/35 
s 2
f 51/51/22 50/59/21 123/144/33 124/145/34 
f 61/146/18 99/78/25 125/147/35 126/148/36 
s 8
f 62/21/20 61/146/18 126/148/36 127/145/37 
s 2
f 107/83/27 62/21/20 127/145/37 128/149/32 
s 8
f 68/63/21 107/83/27 128/149/32 129/148/33 
s 2
f 69/52/22 68/63/21 129/148/33 130/150/34 
s 8
f 99/78/25 69/52/22 130/150/34 125/147/35 
s 2
f 79/151/18 104/11/25 131/149/38 132/152/36 
s 8
f 80/153/20 79/151/18 132/152/36 133/154/31 
s 2
f 92/155/27 80/153/20 133/154/31 134/156/32 
s 8
f 85/20/21 92/155/27 134/156/32 135/157/33 
s 2
f 86/158/22 85/20/21 135/157/33 136/141/34 
s 8
f 104/11/25 86/158/22 136/141/34 131/149/38 
s off
f 115/136/31 114/134/30 137/134/39 138/136/40 
f 114/134/30 113/134/29 139/134/41 137/134/39 
f 113/134/29 118/136/34 140/136/42 139/134/41 
f 118/136/34 117/139/33 141/139/43 140/136/42 
f 117/139/33 116/137/32 142/137/44 141/139/43 
f 116/137/32 115/136/31 138/136/40 142/137/44 
f 121/136/37 120/134/36 143/134/39 144/136/45 
f 120/134/36 119/141/35 145/141/46 143/134/39 
f 119/141/35 124/145/34 146/145/47 145/141/46 
f 124/145/34 123/144/33 147/144/48 146/145/47 
f 123/144/33 122/143/32 148/143/49 147/144/48 
f 122/143/32 121/136/37 144/136/45 148/143/49 
f 127/145/37 126/148/36 149/148/39 150/145/45 
f 126/148/36 125/147/35 151/147/46 149/148/39 
f 125/147/35 130/150/34 152/150/47 151/147/46 
f 130/150/34 129/148/33 153/148/48 152/150/47 
f 129/148/33 128/149/32 154/149/49 153/148/48 
f 128/149/32 127/145/37 150/145/45 154/149/49 
f 133/154/31 132/152/36 155/152/39 156/154/40 
f 132/152/36 131/149/38 157/149/46 155/152/39 
f 131/149/38 136/141/34 158/141/50 157/149/46 
f 136/141/34 135/157/33 159/157/43 158/141/50 
f 135/157/33 134/156/32 160/156/44 159/157/43 
f 134/156/32 133/154/31 156/154/40 160/156/44 
f 137/134/39 139/134/41 140/136/42 141/139/43 142/137/44 138/136/40 
f 143/134/39 145/141/46 146/145/47 147/144/48 148/143/49 144/136/45 
f 149/148/39 151/147/46 152/150/47 153/148/48 154/149/49 150/145/45 
f 155/152/39 157/149/46 158/141/50 159/157/43 160/156/44 156/154/40 
# 154 polygons

